<svg width="59" height="59" viewBox="0 0 59 59" xmlns="http://www.w3.org/2000/svg">
<path d="M22.6573 18.7807C23.5355 18.7644 24.4124 18.8544 25.2689 19.0488C25.9901 19.2063 26.6747 19.4992 27.2866 19.9122C27.8516 20.3228 28.2987 20.8749 28.583 21.5129C28.9097 22.2975 29.0673 23.1422 29.0455 23.9918C29.0826 24.9247 28.8444 25.8478 28.3604 26.6463C27.8513 27.4003 27.1477 28.0026 26.324 28.3891C27.4418 28.6904 28.4153 29.3807 29.0696 30.3357C29.6978 31.3476 30.0135 32.5223 29.9773 33.7128C29.998 34.662 29.8017 35.6033 29.4035 36.4652C29.0353 37.217 28.4963 37.8721 27.8295 38.3783C27.1431 38.8788 26.3706 39.2492 25.5504 39.4709C24.6999 39.7062 23.8213 39.8243 22.9389 39.8221H13.25V18.7807H22.6573ZM22.0983 27.2911C22.7882 27.3196 23.4675 27.113 24.0248 26.7052C24.2917 26.4676 24.4993 26.1709 24.6311 25.8387C24.7628 25.5065 24.8151 25.1481 24.7836 24.7921C24.8014 24.3764 24.7187 23.9625 24.5423 23.5856C24.3926 23.2855 24.16 23.0347 23.8719 22.863C23.5802 22.6739 23.2524 22.5475 22.9094 22.4916C22.5371 22.4195 22.1583 22.3867 21.7792 22.3937H17.6393V27.3099H22.0983V27.2911ZM22.3396 36.2493C22.7569 36.255 23.1733 36.2099 23.5797 36.1152C23.9511 36.0332 24.3033 35.8808 24.6173 35.6661C24.925 35.4516 25.1735 35.163 25.34 34.8269C25.533 34.3984 25.6216 33.9302 25.5987 33.4608C25.6405 33.033 25.5839 32.6013 25.4331 32.1988C25.2822 31.7963 25.0413 31.4337 24.7286 31.1388C24.0659 30.6507 23.2538 30.4089 22.4321 30.455H17.6393V36.2493H22.3396Z" fill="#272727"/>
<path d="M36.2287 36.1715C36.5732 36.4908 36.979 36.7367 37.4215 36.8944C37.864 37.052 38.3339 37.118 38.8027 37.0885C39.5459 37.1072 40.2746 36.8811 40.8767 36.445C41.3665 36.1265 41.7373 35.6552 41.9318 35.1043H45.4322C45.0592 36.6726 44.1484 38.0607 42.8582 39.027C41.6203 39.8486 40.1576 40.2647 38.6727 40.2175C37.6129 40.2314 36.5611 40.0322 35.5798 39.6317C34.6921 39.2615 33.896 38.7019 33.2471 37.9921C32.6006 37.2482 32.1039 36.3865 31.7844 35.4542C31.4258 34.4121 31.2502 33.3158 31.2656 32.2139C31.259 31.1304 31.4405 30.054 31.8018 29.0325C32.2873 27.5955 33.2155 26.3492 34.4533 25.4725C35.691 24.5958 37.1747 24.1337 38.6914 24.1526C39.8112 24.1292 40.9185 24.3912 41.909 24.914C42.8043 25.405 43.5767 26.0926 44.168 26.925C44.7728 27.7985 45.2064 28.7789 45.4456 29.8141C45.7079 30.9257 45.8015 32.0705 45.7231 33.21H35.2969C35.2124 34.2805 35.5464 35.3421 36.2287 36.1715V36.1715ZM40.8029 28.1691C40.5112 27.8773 40.1603 27.6514 39.7738 27.5066C39.3874 27.3619 38.9744 27.3016 38.5627 27.3299C38.0165 27.3091 37.4743 27.4301 36.9888 27.6811C36.6039 27.893 36.2642 28.1781 35.9887 28.5204C35.7445 28.8413 35.5627 29.2051 35.4524 29.5929C35.3531 29.9164 35.291 30.2501 35.2674 30.5877H41.7253C41.669 29.7077 41.3485 28.8653 40.8056 28.1705L40.8029 28.1691Z" fill="#272727"/>
<path d="M42.5272 20.1855H34.4351V22.2542H42.5272V20.1855Z" fill="#272727"/>
</svg>
