<svg width="107" height="61" viewBox="0 0 107 61" fill="none" xmlns="http://www.w3.org/2000/svg">
<rect x="1.5" y="1.5" width="104" height="58" rx="29" stroke="#272727" stroke-width="3"/>
<path d="M23.98 32.79H15.46V42H12.52V20.31H25.6V23.01H15.46V30.12H23.98V32.79ZM26.578 34.65C26.578 30.12 29.818 26.94 34.228 26.94C38.608 26.94 41.848 30.12 41.848 34.65C41.848 39.18 38.608 42.36 34.228 42.36C29.818 42.36 26.578 39.18 26.578 34.65ZM29.428 34.65C29.428 37.71 31.378 39.84 34.228 39.84C37.048 39.84 39.028 37.71 39.028 34.65C39.028 31.59 37.048 29.46 34.228 29.46C31.378 29.46 29.428 31.59 29.428 34.65ZM47.8497 42H45.0297V19.92H47.8497V42ZM54.8809 42H52.0609V19.92H54.8809V42ZM58.0722 34.65C58.0722 30.12 61.3122 26.94 65.7222 26.94C70.1022 26.94 73.3422 30.12 73.3422 34.65C73.3422 39.18 70.1022 42.36 65.7222 42.36C61.3122 42.36 58.0722 39.18 58.0722 34.65ZM60.9222 34.65C60.9222 37.71 62.8722 39.84 65.7222 39.84C68.5422 39.84 70.5222 37.71 70.5222 34.65C70.5222 31.59 68.5422 29.46 65.7222 29.46C62.8722 29.46 60.9222 31.59 60.9222 34.65ZM78.94 42L74.14 27.33H77.05L79.48 34.95C79.81 36.03 80.11 37.14 80.38 38.43C80.62 37.14 81.01 35.91 81.34 34.95L83.8 27.33H86.68L89.11 34.95C89.35 35.67 89.83 37.38 90.07 38.43C90.31 37.26 90.58 36.24 91 34.95L93.46 27.33H96.4L91.39 42H88.72L86.17 34.14C85.69 32.67 85.39 31.53 85.24 30.72C85.09 31.44 84.82 32.4 84.28 34.17L81.73 42H78.94Z" fill="#272727"/>
</svg>
