<svg width="56" height="54" viewBox="0 0 56 54" fill="none" xmlns="http://www.w3.org/2000/svg">
<g clip-path="url(#clip0_217_1814)">
<path d="M9.91667 4.35248e-06H46.0833C47.386 -0.00120989 48.676 0.251645 49.8797 0.744097C51.0834 1.23655 52.1771 1.95893 53.0982 2.8699C54.0193 3.78087 54.7497 4.86255 55.2476 6.05302C55.7456 7.24349 56.0012 8.51939 56 9.8077V44.1923C56.0012 45.4806 55.7456 46.7565 55.2476 47.947C54.7497 49.1375 54.0193 50.2191 53.0982 51.1301C52.1771 52.0411 51.0834 52.7635 49.8797 53.2559C48.676 53.7484 47.386 54.0012 46.0833 54H9.91667C8.61405 54.0012 7.32397 53.7484 6.12028 53.2559C4.91658 52.7635 3.82288 52.0411 2.90179 51.1301C1.9807 50.2191 1.25029 49.1375 0.752365 47.947C0.254441 46.7565 -0.00122333 45.4806 4.40084e-06 44.1923V9.8077C-0.00122333 8.51939 0.254441 7.24349 0.752365 6.05302C1.25029 4.86255 1.9807 3.78087 2.90179 2.8699C3.82288 1.95893 4.91658 1.23655 6.12028 0.744097C7.32397 0.251645 8.61405 -0.00120989 9.91667 4.35248e-06Z" fill="#000B1D"/>
<path d="M22.1668 44.3077C25.3885 44.3077 28.0002 41.7248 28.0002 38.5385V32.7693H22.1668C18.9452 32.7693 16.3335 35.3523 16.3335 38.5385C16.3335 41.7248 18.9452 44.3077 22.1668 44.3077Z" fill="#0ACF83"/>
<path d="M16.3335 27.0002C16.3335 23.8139 18.9452 21.231 22.1668 21.231H28.0002V32.7694H22.1668C18.9452 32.7694 16.3335 30.1864 16.3335 27.0002Z" fill="#A259FF"/>
<path d="M16.3335 15.4616C16.3335 12.2754 18.9452 9.69238 22.1668 9.69238H28.0002V21.2308H22.1668C18.9452 21.2308 16.3335 18.6479 16.3335 15.4616Z" fill="#F24E1E"/>
<path d="M28 9.69238H33.8333C37.055 9.69238 39.6667 12.2754 39.6667 15.4616C39.6667 18.6479 37.055 21.2308 33.8333 21.2308H28V9.69238Z" fill="#FF7262"/>
<path d="M39.6667 27.0002C39.6667 30.1864 37.055 32.7694 33.8333 32.7694C30.6117 32.7694 28 30.1864 28 27.0002C28 23.8139 30.6117 21.231 33.8333 21.231C37.055 21.231 39.6667 23.8139 39.6667 27.0002Z" fill="#1ABCFE"/>
</g>
<defs>
<clipPath id="clip0_217_1814">
<rect width="56" height="54" fill="white"/>
</clipPath>
</defs>
</svg>
