<svg width="59" height="59" viewBox="0 0 59 59" xmlns="http://www.w3.org/2000/svg">
<path fill-rule="evenodd" clip-rule="evenodd" d="M29.5 14.875C25.5279 14.875 25.0306 14.8916 23.4706 14.9628C21.9135 15.0339 20.8498 15.2816 19.9196 15.6433C18.9446 16.0099 18.0603 16.5851 17.3291 17.33C16.5854 18.0605 16.0098 18.9442 15.6423 19.9196C15.2826 20.8498 15.0339 21.9145 14.9628 23.4716C14.8926 25.0306 14.875 25.5269 14.875 29.5C14.875 33.4731 14.8916 33.9694 14.9628 35.5294C15.0339 37.0865 15.2816 38.1502 15.6433 39.0804C16.0099 40.0554 16.5851 40.9397 17.33 41.6709C18.0605 42.4146 18.9442 42.9902 19.9196 43.3577C20.8498 43.7184 21.9135 43.9661 23.4706 44.0373C25.0306 44.1084 25.5279 44.125 29.5 44.125C33.4722 44.125 33.9694 44.1084 35.5294 44.0373C37.0865 43.9661 38.1502 43.7184 39.0804 43.3567C40.0554 42.9901 40.9397 42.4149 41.6709 41.67C42.4146 40.9395 42.9902 40.0558 43.3577 39.0804C43.7184 38.1502 43.9661 37.0865 44.0373 35.5294C44.1084 33.9694 44.125 33.4722 44.125 29.5C44.125 25.5279 44.1084 25.0306 44.0373 23.4706C43.9661 21.9135 43.7184 20.8498 43.3567 19.9196C42.9895 18.9437 42.4139 18.0597 41.67 17.3291C40.9395 16.5854 40.0558 16.0098 39.0804 15.6423C38.1502 15.2826 37.0855 15.0339 35.5284 14.9628C33.9694 14.8926 33.4731 14.875 29.5 14.875ZM29.5 17.5104C33.4049 17.5104 33.868 17.5251 35.4105 17.5953C36.8359 17.6606 37.6101 17.8975 38.1258 18.0993C38.8083 18.3636 39.2958 18.6814 39.8077 19.1923C40.3196 19.7042 40.6365 20.1917 40.9007 20.8742C41.1015 21.39 41.3394 22.1641 41.4047 23.5895C41.4749 25.132 41.4896 25.5951 41.4896 29.5C41.4896 33.4049 41.4749 33.868 41.4047 35.4105C41.3394 36.8359 41.1025 37.6101 40.9007 38.1258C40.6666 38.7611 40.2931 39.3358 39.8077 39.8077C39.3359 40.2932 38.7611 40.6667 38.1258 40.9007C37.6101 41.1015 36.8359 41.3394 35.4105 41.4047C33.868 41.4749 33.4059 41.4896 29.5 41.4896C25.5942 41.4896 25.132 41.4749 23.5895 41.4047C22.1641 41.3394 21.39 41.1025 20.8742 40.9007C20.2389 40.6666 19.6642 40.2931 19.1923 39.8077C18.7069 39.3358 18.3335 38.7611 18.0993 38.1258C17.8985 37.6101 17.6606 36.8359 17.5953 35.4105C17.5251 33.868 17.5104 33.4049 17.5104 29.5C17.5104 25.5951 17.5251 25.132 17.5953 23.5895C17.6606 22.1641 17.8975 21.39 18.0993 20.8742C18.3636 20.1917 18.6814 19.7042 19.1923 19.1923C19.6641 18.7068 20.2389 18.3333 20.8742 18.0993C21.39 17.8985 22.1641 17.6606 23.5895 17.5953C25.132 17.5251 25.5951 17.5104 29.5 17.5104V17.5104Z" fill="#272727"/>
<path fill-rule="evenodd" clip-rule="evenodd" d="M29.5002 34.3799C28.8593 34.3799 28.2248 34.2537 27.6327 34.0084C27.0407 33.7632 26.5027 33.4038 26.0496 32.9506C25.5964 32.4975 25.237 31.9595 24.9917 31.3675C24.7465 30.7754 24.6203 30.1409 24.6203 29.5C24.6203 28.8592 24.7465 28.2246 24.9917 27.6326C25.237 27.0405 25.5964 26.5026 26.0496 26.0494C26.5027 25.5963 27.0407 25.2368 27.6327 24.9916C28.2248 24.7464 28.8593 24.6201 29.5002 24.6201C30.7944 24.6201 32.0356 25.1343 32.9508 26.0494C33.8659 26.9646 34.38 28.2058 34.38 29.5C34.38 30.7942 33.8659 32.0355 32.9508 32.9506C32.0356 33.8658 30.7944 34.3799 29.5002 34.3799V34.3799ZM29.5002 21.9828C27.5065 21.9828 25.5944 22.7748 24.1847 24.1845C22.7749 25.5943 21.9829 27.5063 21.9829 29.5C21.9829 31.4937 22.7749 33.4058 24.1847 34.8155C25.5944 36.2253 27.5065 37.0173 29.5002 37.0173C31.4939 37.0173 33.4059 36.2253 34.8157 34.8155C36.2254 33.4058 37.0174 31.4937 37.0174 29.5C37.0174 27.5063 36.2254 25.5943 34.8157 24.1845C33.4059 22.7748 31.4939 21.9828 29.5002 21.9828V21.9828ZM39.2043 21.8463C39.2043 22.3175 39.0171 22.7695 38.6839 23.1028C38.3506 23.436 37.8987 23.6232 37.4274 23.6232C36.9561 23.6232 36.5042 23.436 36.1709 23.1028C35.8377 22.7695 35.6505 22.3175 35.6505 21.8463C35.6505 21.375 35.8377 20.923 36.1709 20.5898C36.5042 20.2565 36.9561 20.0693 37.4274 20.0693C37.8987 20.0693 38.3506 20.2565 38.6839 20.5898C39.0171 20.923 39.2043 21.375 39.2043 21.8463" fill="#272727"/>
</svg>
