<svg width="54" height="53" viewBox="0 0 54 53" fill="none" xmlns="http://www.w3.org/2000/svg">
<g clip-path="url(#clip0_235_2485)">
<path d="M9.5625 4.27188e-06H44.4375C45.6936 -0.00118748 46.9376 0.246985 48.0983 0.730318C49.259 1.21365 50.3137 1.92266 51.2019 2.81676C52.09 3.71086 52.7944 4.7725 53.2745 5.94093C53.7547 7.10935 54.0012 8.36162 54 9.62607V43.3739C54.0012 44.6384 53.7547 45.8907 53.2745 47.0591C52.7944 48.2275 52.09 49.2892 51.2019 50.1833C50.3137 51.0774 49.259 51.7864 48.0983 52.2697C46.9376 52.753 45.6936 53.0012 44.4375 53H9.5625C8.30641 53.0012 7.0624 52.753 5.90169 52.2697C4.74098 51.7864 3.68635 51.0774 2.79816 50.1833C1.90996 49.2892 1.20564 48.2275 0.725495 47.0591C0.245354 45.8907 -0.00117964 44.6384 4.24367e-06 43.3739V9.62607C-0.00117964 8.36162 0.245354 7.10935 0.725495 5.94093C1.20564 4.7725 1.90996 3.71086 2.79816 2.81676C3.68635 1.92266 4.74098 1.21365 5.90169 0.730318C7.0624 0.246985 8.30641 -0.00118748 9.5625 4.27188e-06Z" fill="#330000"/>
<path d="M26.1674 31.8H17.7974L16.0874 37.1227C16.0683 37.2197 16.0138 37.306 15.9347 37.3647C15.8556 37.4234 15.7576 37.4502 15.6599 37.4398H11.4299C11.1824 37.4398 11.1149 37.3039 11.1824 37.0321L18.4274 16.0359C18.4949 15.8094 18.5624 15.5603 18.6524 15.2885C18.7429 14.8031 18.7881 14.3102 18.7874 13.8163C18.7806 13.7596 18.7954 13.7024 18.8288 13.6562C18.8622 13.61 18.9117 13.5782 18.9674 13.5671H24.7949C24.9749 13.5671 25.0649 13.6351 25.0874 13.7483L33.2999 37.0774C33.3674 37.3265 33.2999 37.4398 33.0749 37.4398H28.3724C28.2928 37.4475 28.2132 37.4267 28.1473 37.3812C28.0815 37.3356 28.0337 37.2682 28.0124 37.1906L26.1674 31.8ZM19.1024 27.2022H24.8174C24.6824 26.7265 24.5024 26.1603 24.2999 25.5714C24.0974 24.9825 23.8949 24.303 23.6924 23.6235C23.4899 22.9441 23.2649 22.2419 23.0399 21.5398C22.8149 20.8377 22.6124 20.1808 22.4324 19.524C22.2524 18.8671 22.0949 18.3009 21.9374 17.7573H21.8924C21.6902 18.7445 21.4348 19.7198 21.1274 20.6791C20.7899 21.7663 20.4524 22.8988 20.0924 24.0312C19.7774 25.1864 19.4399 26.2509 19.1024 27.2022Z" fill="#FF9A00"/>
<path d="M38.2047 17.4403C37.8354 17.4484 37.4682 17.3825 37.1244 17.2464C36.7806 17.1103 36.4671 16.9067 36.2022 16.6475C35.6867 16.0801 35.4122 15.3323 35.4372 14.5638C35.4239 14.1893 35.4892 13.8163 35.6288 13.4689C35.7683 13.1216 35.9791 12.8078 36.2472 12.548C36.788 12.0334 37.5056 11.7493 38.2497 11.7552C39.1272 11.7552 39.8022 12.027 40.2972 12.548C40.7957 13.0971 41.062 13.8202 41.0397 14.5638C41.0535 14.9464 40.9908 15.328 40.8556 15.6859C40.7203 16.0438 40.5152 16.3708 40.2522 16.6475C39.9871 16.9194 39.6672 17.1308 39.3139 17.2676C38.9607 17.4043 38.5825 17.4632 38.2047 17.4403ZM35.6847 37.1001V19.6599C35.6847 19.4334 35.7747 19.3428 35.9772 19.3428H40.4322C40.6347 19.3428 40.7247 19.4561 40.7247 19.6599V37.1001C40.7247 37.3492 40.6347 37.4625 40.4322 37.4625H36.0222C35.975 37.4664 35.9274 37.4595 35.8831 37.4424C35.8388 37.4252 35.799 37.3982 35.7665 37.3633C35.7341 37.3285 35.7099 37.2867 35.6957 37.2411C35.6816 37.1956 35.6778 37.1473 35.6847 37.1001Z" fill="#FF9A00"/>
</g>
<defs>
<clipPath id="clip0_235_2485">
<rect width="54" height="53" fill="white"/>
</clipPath>
</defs>
</svg>
