<svg width="61" height="61" viewBox="0 0 61 61" xmlns="http://www.w3.org/2000/svg">
<path d="M45.875 17.386V43.614C45.875 44.2136 45.6368 44.7887 45.2128 45.2128C44.7887 45.6368 44.2136 45.875 43.614 45.875H17.386C16.7864 45.875 16.2113 45.6368 15.7872 45.2128C15.3632 44.7887 15.125 44.2136 15.125 43.614V17.386C15.125 16.7864 15.3632 16.2113 15.7872 15.7872C16.2113 15.3632 16.7864 15.125 17.386 15.125H43.614C44.2136 15.125 44.7887 15.3632 45.2128 15.7872C45.6368 16.2113 45.875 16.7864 45.875 17.386V17.386ZM24.1691 26.8824H19.6471V41.3529H24.1691V26.8824ZM24.5761 21.9081C24.5785 21.566 24.5135 21.2269 24.3848 20.9099C24.2561 20.593 24.0662 20.3045 23.826 20.061C23.5858 19.8174 23.3 19.6236 22.9849 19.4905C22.6698 19.3574 22.3315 19.2877 21.9895 19.2853H21.9081C21.2125 19.2853 20.5454 19.5616 20.0535 20.0535C19.5616 20.5454 19.2853 21.2125 19.2853 21.9081C19.2853 22.6037 19.5616 23.2708 20.0535 23.7627C20.5454 24.2546 21.2125 24.5309 21.9081 24.5309V24.5309C22.2502 24.5393 22.5906 24.4802 22.9098 24.357C23.229 24.2339 23.5209 24.049 23.7687 23.813C24.0164 23.577 24.2153 23.2945 24.3538 22.9816C24.4924 22.6687 24.5679 22.3316 24.5761 21.9895V21.9081ZM41.3529 32.5621C41.3529 28.2118 38.5854 26.5206 35.836 26.5206C34.9358 26.4755 34.0395 26.6672 33.2365 27.0767C32.4335 27.4861 31.7519 28.0989 31.2597 28.854H31.1331V26.8824H26.8824V41.3529H31.4044V33.6564C31.339 32.8681 31.5873 32.0859 32.0954 31.4797C32.6034 30.8734 33.3301 30.4921 34.1176 30.4186H34.2895C35.7275 30.4186 36.7947 31.323 36.7947 33.6021V41.3529H41.3168L41.3529 32.5621Z" fill="#272727"/>
</svg>
