<svg width="54" height="53" viewBox="0 0 54 53" fill="none" xmlns="http://www.w3.org/2000/svg">
<g clip-path="url(#clip0_217_1813)">
<path d="M9.5625 4.27188e-06H44.4375C45.6936 -0.00118748 46.9376 0.246985 48.0983 0.730318C49.259 1.21365 50.3137 1.92266 51.2019 2.81676C52.09 3.71086 52.7944 4.7725 53.2745 5.94093C53.7547 7.10935 54.0012 8.36162 54 9.62607V43.3739C54.0012 44.6384 53.7547 45.8907 53.2745 47.0591C52.7944 48.2275 52.09 49.2892 51.2019 50.1833C50.3137 51.0774 49.259 51.7864 48.0983 52.2697C46.9376 52.753 45.6936 53.0012 44.4375 53H9.5625C8.30641 53.0012 7.0624 52.753 5.90169 52.2697C4.74098 51.7864 3.68635 51.0774 2.79816 50.1833C1.90996 49.2892 1.20564 48.2275 0.725495 47.0591C0.245354 45.8907 -0.00117964 44.6384 4.24367e-06 43.3739V9.62607C-0.00117964 8.36162 0.245354 7.10935 0.725495 5.94093C1.20564 4.7725 1.90996 3.71086 2.79816 2.81676C3.68635 1.92266 4.74098 1.21365 5.90169 0.730318C7.0624 0.246985 8.30641 -0.00118748 9.5625 4.27188e-06Z" fill="#001E36"/>
<path d="M12.1499 37.168V13.8616C12.1499 13.7031 12.2174 13.6125 12.3749 13.6125C12.7574 13.6125 13.1174 13.6125 13.6349 13.5898C14.1524 13.5672 14.7374 13.5672 15.3449 13.5445C15.9524 13.5219 16.6049 13.5219 17.3024 13.4992C17.9999 13.4766 18.6749 13.4766 19.3499 13.4766C21.1949 13.4766 22.7249 13.7031 23.9849 14.1787C25.1144 14.5648 26.1443 15.1993 26.9999 16.036C27.7249 16.7682 28.2851 17.6488 28.6424 18.618C28.983 19.5619 29.1581 20.5582 29.1599 21.5625C29.1599 23.5103 28.7099 25.1184 27.8099 26.3868C26.9057 27.6535 25.6433 28.6164 24.1874 29.1501C22.6574 29.7163 20.9699 29.9202 19.1249 29.9202C18.5849 29.9202 18.2249 29.9202 17.9999 29.8975C17.7749 29.8749 17.4599 29.8749 17.0324 29.8749V37.1454C17.0374 37.1826 17.035 37.2205 17.0252 37.2568C17.0153 37.2931 16.9984 37.3271 16.9753 37.3566C16.9522 37.3862 16.9235 37.4108 16.8908 37.429C16.8581 37.4472 16.8221 37.4586 16.7849 37.4625H12.4199C12.2399 37.4625 12.1499 37.3719 12.1499 37.168ZM17.0549 17.9838V25.5941C17.3699 25.6167 17.6624 25.6394 17.9324 25.6394H19.1249C20.0033 25.6404 20.8764 25.5029 21.7124 25.2317C22.4297 25.0194 23.0705 24.6024 23.5574 24.0313C24.0299 23.465 24.2549 22.6949 24.2549 21.6984C24.2761 20.9906 24.0966 20.2914 23.7374 19.6825C23.3622 19.0945 22.8105 18.6422 22.1624 18.3915C21.3177 18.0585 20.4139 17.9043 19.5074 17.9385C18.9224 17.9385 18.4049 17.9385 17.9774 17.9612C17.6698 17.9409 17.3611 17.9485 17.0549 17.9838Z" fill="#31A8FF"/>
<path d="M43.2001 24.2126C42.5208 23.8524 41.7932 23.593 41.0401 23.4425C40.213 23.2539 39.3681 23.1552 38.5201 23.148C38.0647 23.1322 37.6096 23.1857 37.1701 23.3066C36.8898 23.3653 36.6413 23.5267 36.4726 23.7596C36.3589 23.9433 36.2967 24.1546 36.2926 24.3711C36.3031 24.5866 36.3819 24.793 36.5176 24.96C36.7309 25.2118 36.9907 25.4195 37.2826 25.5715C37.8001 25.8433 38.3401 26.0925 38.8801 26.319C40.0957 26.7309 41.2588 27.2859 42.3451 27.9724C43.084 28.4401 43.695 29.0863 44.1226 29.8523C44.4842 30.5749 44.662 31.3764 44.6401 32.1852C44.6584 33.2557 44.3523 34.3065 43.7626 35.1976C43.135 36.1017 42.2593 36.8022 41.2426 37.2134C40.1401 37.689 38.7901 37.9382 37.1701 37.9382C36.1429 37.9424 35.1179 37.8437 34.1101 37.6437C33.3166 37.5057 32.5448 37.262 31.8151 36.919C31.7367 36.8793 31.6714 36.8175 31.6275 36.741C31.5835 36.6646 31.5627 36.5768 31.5676 36.4886V32.5476C31.5657 32.5089 31.5728 32.4703 31.5884 32.4349C31.6041 32.3994 31.6278 32.3682 31.6576 32.3438C31.6893 32.3252 31.7261 32.3173 31.7626 32.3214C31.799 32.3255 31.8332 32.3413 31.8601 32.3664C32.7268 32.8808 33.6682 33.2552 34.6501 33.4762C35.517 33.7033 36.4093 33.8175 37.3051 33.816C38.1601 33.816 38.7676 33.7027 39.1726 33.4989C39.3532 33.4149 39.5063 33.2808 39.6139 33.1123C39.7215 32.9438 39.7792 32.7479 39.7801 32.5476C39.7801 32.2305 39.6001 31.9361 39.2401 31.6416C38.8801 31.3472 38.1376 31.0074 37.0351 30.5771C35.9041 30.1759 34.83 29.6277 33.8401 28.9463C33.1351 28.4405 32.5509 27.7828 32.1301 27.0211C31.771 26.3057 31.5932 25.5121 31.6126 24.7108C31.6159 23.7444 31.8804 22.797 32.3776 21.9702C32.9492 21.061 33.7696 20.3374 34.7401 19.8865C35.7976 19.3429 37.1251 19.0938 38.7226 19.0938C39.6563 19.094 40.5887 19.1621 41.5126 19.2976C42.1769 19.3881 42.8271 19.5631 43.4476 19.8185C43.5465 19.8538 43.6274 19.9271 43.6726 20.0224C43.6985 20.1108 43.7137 20.2021 43.7176 20.2942V23.9861C43.718 24.0301 43.708 24.0735 43.6884 24.1129C43.6688 24.1523 43.6403 24.1864 43.6051 24.2126C43.4742 24.2599 43.331 24.2599 43.2001 24.2126Z" fill="#31A8FF"/>
</g>
<defs>
<clipPath id="clip0_217_1813">
<rect width="54" height="53" fill="white"/>
</clipPath>
</defs>
</svg>
