<svg width="58" height="58" viewBox="0 0 58 58" fill="none" xmlns="http://www.w3.org/2000/svg">
<g clip-path="url(#clip0_170_759)">
<path d="M19.5 33.75C22.1234 33.75 24.25 31.6234 24.25 29C24.25 26.3766 22.1234 24.25 19.5 24.25C16.8766 24.25 14.75 26.3766 14.75 29C14.75 31.6234 16.8766 33.75 19.5 33.75Z" stroke="black" stroke-width="2" stroke-linecap="round" stroke-linejoin="round"/>
<path d="M36.125 44.4375C38.7484 44.4375 40.875 42.3109 40.875 39.6875C40.875 37.0641 38.7484 34.9375 36.125 34.9375C33.5016 34.9375 31.375 37.0641 31.375 39.6875C31.375 42.3109 33.5016 44.4375 36.125 44.4375Z" stroke="black" stroke-width="2" stroke-linecap="round" stroke-linejoin="round"/>
<path d="M36.125 23.0625C38.7484 23.0625 40.875 20.9359 40.875 18.3125C40.875 15.6891 38.7484 13.5625 36.125 13.5625C33.5016 13.5625 31.375 15.6891 31.375 18.3125C31.375 20.9359 33.5016 23.0625 36.125 23.0625Z" stroke="black" stroke-width="2" stroke-linecap="round" stroke-linejoin="round"/>
<path d="M32.1307 20.8805L23.4946 26.4321" stroke="black" stroke-width="2" stroke-linecap="round" stroke-linejoin="round"/>
<path d="M23.4946 31.568L32.1307 37.1196" stroke="black" stroke-width="2" stroke-linecap="round" stroke-linejoin="round"/>
</g>
<defs>
<clipPath id="clip0_170_759">
<rect width="38" height="38" fill="white" transform="translate(10 10)"/>
</clipPath>
</defs>
</svg>
